<svg width="38" height="38" viewBox="0 0 38 38" fill="none" xmlns="http://www.w3.org/2000/svg">
<path d="M27.584 12.9179C27.3845 12.4052 27.1457 12.0392 26.7622 11.6535C26.3787 11.2722 26.0127 11.0312 25.4999 10.8318C25.112 10.6806 24.5313 10.5009 23.4596 10.4527C22.3025 10.4001 21.9541 10.3891 19.0197 10.3891C16.0854 10.3891 15.7413 10.4001 14.582 10.4527C13.5104 10.5009 12.9296 10.6806 12.5418 10.8318C12.029 11.0312 11.663 11.2701 11.2773 11.6535C10.8938 12.0392 10.6549 12.4052 10.4555 12.9179C10.3043 13.3058 10.1246 13.8887 10.0764 14.9581C10.0238 16.1173 10.0128 16.4635 10.0128 19.3955C10.0128 22.3275 10.0238 22.676 10.0764 23.833C10.1246 24.9046 10.3043 25.4875 10.4555 25.8731C10.6549 26.3859 10.8938 26.7519 11.2773 27.1375C11.663 27.521 12.029 27.7599 12.5418 27.9593C12.9296 28.1083 13.5104 28.2902 14.582 28.3362C15.7413 28.3888 16.0875 28.4019 19.0197 28.4019C21.9519 28.4019 22.3003 28.3888 23.4596 28.3362C24.5313 28.288 25.112 28.1083 25.4999 27.9593C26.0127 27.7599 26.3787 27.521 26.7622 27.1375C27.1479 26.7519 27.3845 26.3859 27.584 25.8731C27.7352 25.4875 27.9127 24.9046 27.9609 23.833C28.0135 22.676 28.0266 22.3275 28.0266 19.3955C28.0266 16.4635 28.0157 16.1151 27.9609 14.9581C27.9127 13.8887 27.733 13.3058 27.584 12.9179ZM19.0197 25.036C15.9035 25.036 13.3789 22.5116 13.3789 19.3955C13.3789 16.2795 15.9035 13.755 19.0197 13.755C22.136 13.755 24.6606 16.2816 24.6606 19.3955C24.6606 22.5094 22.1338 25.036 19.0197 25.036ZM24.8841 14.8507C24.1565 14.8507 23.567 14.259 23.567 13.5315C23.567 12.804 24.1565 12.2145 24.8841 12.2145C25.6117 12.2145 26.2033 12.804 26.2033 13.5315C26.2033 14.259 25.6138 14.8507 24.8841 14.8507Z" fill="#260A00"/>
<path d="M19.0197 15.736C16.997 15.736 15.3578 17.3751 15.3578 19.3977C15.3578 21.4203 16.997 23.0573 19.0197 23.0573C21.0424 23.0573 22.6817 21.4181 22.6817 19.3977C22.6817 17.3773 21.0424 15.736 19.0197 15.736Z" fill="#260A00"/>
<path d="M19 0C8.50727 0 0 8.50678 0 19.0011C0 29.4954 8.50727 38 19 38C29.4927 38 38 29.4932 38 19.0011C38 8.50897 29.4927 0 19 0ZM29.9376 23.9272C29.885 25.0952 29.6987 25.895 29.427 26.5941C29.1465 27.3172 28.7717 27.9286 28.1603 28.5378C27.5489 29.1514 26.9375 29.5261 26.2143 29.8044C25.5152 30.0761 24.7175 30.2624 23.5473 30.315C22.377 30.3676 22.0001 30.3807 19.0197 30.3807C16.0393 30.3807 15.6624 30.3676 14.49 30.315C13.3219 30.2624 12.522 30.0761 11.823 29.8044C11.0998 29.5239 10.4862 29.1492 9.87693 28.5378C9.26551 27.9286 8.89077 27.315 8.61027 26.5941C8.33852 25.895 8.15225 25.0974 8.09965 23.9272C8.04487 22.757 8.03391 22.3823 8.03391 19.3977C8.03391 16.4131 8.04706 16.0406 8.09965 14.8682C8.15444 13.7002 8.33852 12.9004 8.61027 12.2014C8.89077 11.4804 9.26551 10.8668 9.87693 10.2577C10.4862 9.64627 11.0998 9.27155 11.823 8.99106C12.5198 8.71934 13.3197 8.53307 14.49 8.48048C15.6624 8.4257 16.0349 8.41255 19.0197 8.41255C22.0045 8.41255 22.377 8.4257 23.5473 8.48048C24.7175 8.53307 25.5152 8.71714 26.2143 8.99106C26.9375 9.27155 27.5489 9.64627 28.1603 10.2577C28.7696 10.869 29.1465 11.4804 29.427 12.2014C29.6987 12.9004 29.885 13.7002 29.9376 14.8682C29.9924 16.0406 30.0033 16.4153 30.0033 19.3977C30.0033 22.3801 29.9902 22.757 29.9376 23.9272Z" fill="#260A00"/>
</svg>
