<svg width="32" height="32" viewBox="0 0 32 32" fill="none" xmlns="http://www.w3.org/2000/svg">
<g id="Instagram">
<path id="Path 1068" fill-rule="evenodd" clip-rule="evenodd" d="M15.971 0C12.8122 0 9.72441 0.936681 7.09799 2.6916C4.47157 4.44651 2.42454 6.94084 1.21573 9.85916C0.00692165 12.7775 -0.30936 15.9887 0.306885 19.0868C0.923129 22.1849 2.44421 25.0306 4.6778 27.2642C6.91138 29.4978 9.75715 31.0189 12.8552 31.6351C15.9533 32.2514 19.1645 31.9351 22.0828 30.7263C25.0011 29.5175 27.4955 27.4704 29.2504 24.844C31.0053 22.2176 31.942 19.1298 31.942 15.971C31.942 11.7352 30.2593 7.67294 27.2642 4.6778C24.269 1.68265 20.2068 0 15.971 0ZM12.459 7.5C13.368 7.459 13.659 7.449 15.971 7.449C18.286 7.449 18.571 7.459 19.483 7.5C20.1903 7.51571 20.8898 7.65095 21.552 7.9C22.1181 8.11881 22.6322 8.45352 23.0613 8.88266C23.4905 9.3118 23.8252 9.82591 24.044 10.392C24.2923 11.0537 24.4276 11.7524 24.444 12.459C24.485 13.368 24.495 13.659 24.495 15.971C24.495 18.283 24.484 18.571 24.444 19.483C24.4275 20.1899 24.2923 20.889 24.044 21.551C23.8249 22.1168 23.4902 22.6306 23.0613 23.0597C22.6324 23.4888 22.1187 23.8237 21.553 24.043C20.891 24.2925 20.1913 24.4278 19.484 24.443C18.576 24.484 18.284 24.494 15.973 24.494C13.662 24.494 13.373 24.484 12.461 24.443C11.754 24.4278 11.0547 24.2926 10.393 24.043C9.82713 23.824 9.31324 23.4892 8.88428 23.0601C8.45532 22.631 8.12076 22.117 7.90201 21.551C7.65303 20.8895 7.5178 20.1906 7.50201 19.484C7.46101 18.575 7.45099 18.284 7.45099 15.972C7.45099 13.66 7.46201 13.372 7.50201 12.46C7.51654 11.7529 7.65181 11.0535 7.90201 10.392C8.12099 9.82613 8.45576 9.31225 8.88489 8.88329C9.31402 8.45433 9.82805 8.11975 10.394 7.901C11.0551 7.6515 11.7526 7.51591 12.459 7.5Z" fill="#260A00"/>
<path id="Path 1069" fill-rule="evenodd" clip-rule="evenodd" d="M15.208 8.989H15.972C18.247 8.989 18.516 8.997 19.415 9.038C19.9549 9.04441 20.4897 9.14351 20.996 9.331C21.3634 9.47278 21.6969 9.68991 21.9752 9.96841C22.2535 10.2469 22.4705 10.5806 22.612 10.948C22.7996 11.4543 22.8987 11.9891 22.905 12.529C22.946 13.429 22.954 13.696 22.954 15.97C22.954 18.244 22.945 18.513 22.905 19.411C22.8986 19.9509 22.7995 20.4857 22.612 20.992C22.4699 21.359 22.2528 21.6922 21.9745 21.9705C21.6963 22.2488 21.363 22.4659 20.996 22.608C20.4898 22.7958 19.9549 22.8949 19.415 22.901C18.515 22.942 18.247 22.95 15.972 22.95C13.697 22.95 13.428 22.941 12.53 22.901C11.9898 22.8943 11.4546 22.7949 10.948 22.607C10.5807 22.4653 10.247 22.2484 9.96857 21.9701C9.69008 21.6918 9.47291 21.3583 9.33102 20.991C9.14352 20.4847 9.04441 19.9499 9.03802 19.41C8.99702 18.51 8.98901 18.242 8.98901 15.967C8.98901 13.692 8.99702 13.424 9.03802 12.526C9.04441 11.9861 9.14352 11.4513 9.33102 10.945C9.4729 10.5776 9.69006 10.244 9.96854 9.96551C10.247 9.68703 10.5806 9.46988 10.948 9.328C11.4546 9.14013 11.9898 9.04102 12.53 9.035C13.316 8.999 13.62 8.988 15.208 8.987V8.989ZM20.519 10.403C20.3169 10.403 20.1193 10.4629 19.9512 10.5752C19.7832 10.6875 19.6522 10.8472 19.5748 11.0339C19.4974 11.2206 19.4772 11.4261 19.5167 11.6244C19.5561 11.8226 19.6534 12.0047 19.7964 12.1477C19.9393 12.2906 20.1214 12.3879 20.3196 12.4274C20.5179 12.4668 20.7234 12.4466 20.9101 12.3692C21.0969 12.2919 21.2565 12.1609 21.3688 11.9928C21.4811 11.8247 21.541 11.6271 21.541 11.425C21.541 11.154 21.4333 10.894 21.2417 10.7023C21.05 10.5107 20.7901 10.403 20.519 10.403ZM11.598 15.972C11.598 15.1069 11.8546 14.2612 12.3352 13.5419C12.8158 12.8226 13.4989 12.262 14.2982 11.931C15.0974 11.5999 15.9769 11.5133 16.8253 11.682C17.6738 11.8508 18.4532 12.2674 19.0649 12.8791C19.6766 13.4908 20.0932 14.2702 20.262 15.1187C20.4307 15.9671 20.3441 16.8466 20.0131 17.6459C19.682 18.4451 19.1214 19.1282 18.4021 19.6088C17.6828 20.0895 16.8371 20.346 15.972 20.346C14.812 20.346 13.6994 19.8852 12.8791 19.0649C12.0588 18.2446 11.598 17.1321 11.598 15.972Z" fill="#260A00"/>
<path id="Path 1070" d="M15.972 13.132C16.5337 13.132 17.0827 13.2985 17.5498 13.6106C18.0168 13.9227 18.3808 14.3662 18.5958 14.8852C18.8107 15.4041 18.867 15.9751 18.7574 16.526C18.6478 17.077 18.3773 17.583 17.9801 17.9802C17.583 18.3774 17.0769 18.6478 16.526 18.7574C15.9751 18.867 15.4041 18.8108 14.8851 18.5958C14.3662 18.3808 13.9226 18.0168 13.6106 17.5498C13.2985 17.0828 13.132 16.5337 13.132 15.972C13.132 15.2188 13.4312 14.4964 13.9638 13.9638C14.4964 13.4312 15.2187 13.132 15.972 13.132Z" fill="#260A00"/>
</g>
</svg>
